<?xml version="1.0" encoding="UTF-8" standalone="no"?>
<svg width="16px" height="16px" viewBox="0 0 16 16" version="1.1" xmlns="http://www.w3.org/2000/svg" xmlns:xlink="http://www.w3.org/1999/xlink">
    <!-- Generator: Sketch 41 (35326) - http://www.bohemiancoding.com/sketch -->
    <title>facebook</title>
    <desc>Created with Sketch.</desc>
    <defs></defs>
    <g id="Symbols" stroke="none" stroke-width="1" fill="none" fill-rule="evenodd" fill-opacity="0.54">
        <g id="Card-/-Event-(Regular)" transform="translate(-161.000000, -301.000000)" fill="#000000">
            <g id="Menu" transform="translate(-1.000000, 279.000000)">
                <g id="Shares" transform="translate(162.000000, 19.000000)">
                    <path d="M15,3 L1,3 C0.453125,3 0,3.453125 0,4 L0,18 C0,18.546875 0.453125,19 1,19 L8.5546875,19 L8.5546875,12.78125 L6.5546875,12.78125 L6.5546875,10.4765625 L8.5546875,10.4765625 L8.5546875,8.484375 C8.5546875,6.6640625 9.6640625,5.4453125 11.859375,5.4453125 C12.828125,5.4453125 13.5,5.5546875 13.5,5.5546875 L13.5,7.6328125 L12,7.6328125 C11.3359375,7.6328125 11,8.0078125 11,8.6640625 L11,10.4765625 L13.3359375,10.4765625 L13,12.78125 L11,12.78125 L11,19 L15,19 C15.546875,19 16,18.546875 16,18 L16,4 C16,3.453125 15.546875,3 15,3 Z" id="facebook"></path>
                </g>
            </g>
        </g>
    </g>
</svg>