<?xml version="1.0" encoding="UTF-8" standalone="no"?>
<svg width="16px" height="16px" viewBox="0 0 16 16" version="1.1" xmlns="http://www.w3.org/2000/svg" xmlns:xlink="http://www.w3.org/1999/xlink">
    <!-- Generator: Sketch 41 (35326) - http://www.bohemiancoding.com/sketch -->
    <title>globe</title>
    <desc>Created with Sketch.</desc>
    <defs></defs>
    <g id="Symbols" stroke="none" stroke-width="1" fill="none" fill-rule="evenodd" fill-opacity="0.54">
        <g id="Card-/-Event-(Regular)" transform="translate(-32.000000, -227.000000)" fill="#000000">
            <g id="Location" transform="translate(32.000000, 226.000000)">
                <path d="M8,1 C3.5859375,1 0,4.5859375 0,9 C0,13.4140625 3.5859375,17 8,17 C12.4140625,17 16,13.4140625 16,9 C16,4.5859375 12.4140625,1 8,1 Z M3.0546875,4.0546875 C3.8359375,3.25 4.7890625,2.6953125 5.7890625,2.375 C5.375,2.7109375 4.984375,3.1640625 4.640625,3.6953125 C3.75,5.109375 3.3046875,6.9140625 3.25,8.75 L1.015625,8.75 C1.0703125,7.0390625 1.75,5.359375 3.0546875,4.0546875 Z M3.0546875,13.9453125 C1.75,12.640625 1.0703125,10.9609375 1.015625,9.25 L3.25,9.25 C3.3046875,11.0859375 3.75,12.9140625 4.640625,14.3046875 C4.984375,14.859375 5.375,15.2890625 5.7890625,15.640625 C4.7890625,15.3046875 3.8359375,14.75 3.0546875,13.9453125 Z M7.75,15.984375 C6.75,15.875 5.8046875,15.1953125 5.0546875,14.0390625 C4.234375,12.7109375 3.7890625,10.984375 3.75,9.25 L7.75,9.25 L7.75,15.984375 Z M7.75,8.75 L3.75,8.75 C3.7890625,7.015625 4.234375,5.2890625 5.0546875,3.9609375 C5.8046875,2.8046875 6.75,2.125 7.75,2.015625 L7.75,8.75 Z M12.9453125,4.0546875 C14.25,5.359375 14.9296875,7.0390625 14.984375,8.75 L12.75,8.75 C12.6953125,6.9140625 12.25,5.109375 11.359375,3.6953125 C11.015625,3.1640625 10.625,2.7109375 10.2109375,2.375 C11.2109375,2.6953125 12.1640625,3.25 12.9453125,4.0546875 Z M8.25,2.015625 C9.25,2.125 10.1953125,2.8046875 10.9296875,3.9609375 C11.765625,5.2890625 12.2109375,7.015625 12.25,8.75 L8.25,8.75 L8.25,2.015625 Z M8.25,15.984375 L8.25,9.25 L12.25,9.25 C12.2109375,10.984375 11.765625,12.7109375 10.9296875,14.0390625 C10.1953125,15.2109375 9.25,15.875 8.25,15.984375 Z M12.9453125,13.9453125 C12.1640625,14.75 11.2109375,15.3046875 10.2109375,15.625 C10.625,15.2890625 11.015625,14.859375 11.359375,14.3046875 C12.25,12.9140625 12.6953125,11.0859375 12.75,9.25 L14.984375,9.25 C14.9296875,10.9609375 14.25,12.640625 12.9453125,13.9453125 Z" id="globe"></path>
            </g>
        </g>
    </g>
</svg>