<?xml version="1.0" encoding="UTF-8" standalone="no"?>
<svg width="16px" height="14px" viewBox="0 0 16 14" version="1.1" xmlns="http://www.w3.org/2000/svg" xmlns:xlink="http://www.w3.org/1999/xlink">
    <!-- Generator: Sketch 41 (35326) - http://www.bohemiancoding.com/sketch -->
    <title>google+</title>
    <desc>Created with Sketch.</desc>
    <defs></defs>
    <g id="Symbols" stroke="none" stroke-width="1" fill="none" fill-rule="evenodd" fill-opacity="0.54">
        <g id="Card-/-Event-(Regular)" transform="translate(-161.000000, -302.000000)" fill="#000000">
            <g id="Menu" transform="translate(-1.000000, 279.000000)">
                <g id="Shares" transform="translate(162.000000, 19.000000)">
                    <path d="M16,6.6640625 L13.3359375,6.6640625 L13.3359375,4 L12.6640625,4 L12.6640625,6.6640625 L10,6.6640625 L10,7.3359375 L12.6640625,7.3359375 L12.6640625,10 L13.3359375,10 L13.3359375,7.3359375 L16,7.3359375 L16,6.6640625 Z M6.9453125,12.109375 C6.5546875,11.8515625 5.8359375,11.203125 5.8359375,10.8125 C5.8359375,10.3671875 5.9609375,10.1484375 6.6328125,9.609375 C7.3359375,9.0703125 7.8125,8.3125 7.8125,7.4296875 C7.8125,6.3671875 7.3515625,5.3515625 6.4609375,5.015625 L7.796875,5.015625 L8.7421875,4.3359375 L4.5546875,4.3359375 C2.6640625,4.3359375 0.90625,5.7578125 0.90625,7.40625 C0.90625,9.09375 2.1875,10.4453125 4.09375,10.4453125 C4.21875,10.4453125 4.3515625,10.4453125 4.484375,10.4296875 C4.3515625,10.6640625 4.28125,10.9453125 4.28125,11.21875 C4.28125,11.6875 4.515625,12.0546875 4.8359375,12.3671875 L4.109375,12.3671875 C1.796875,12.3671875 0,13.8515625 0,15.390625 C0,16.90625 1.9609375,17.8515625 4.28125,17.8515625 C6.9453125,17.8515625 8.40625,16.3515625 8.40625,14.8359375 C8.40625,13.6328125 8.0390625,12.90625 6.9453125,12.109375 Z M4.703125,10.015625 C3.6328125,9.984375 2.59375,8.8125 2.40625,7.390625 C2.21875,5.984375 2.9453125,4.890625 4.015625,4.9296875 C5.109375,4.9609375 6.1328125,6.09375 6.3125,7.515625 C6.5,8.9296875 5.78125,10.0546875 4.703125,10.015625 Z M4.28125,17.1875 C2.6640625,17.1875 1.515625,16.1640625 1.515625,14.9453125 C1.515625,13.7421875 2.9453125,12.7578125 4.5546875,12.7578125 C4.9296875,12.78125 5.28125,12.8359375 5.59375,12.9296875 C6.4609375,13.5390625 7.09375,13.890625 7.28125,14.5703125 C7.296875,14.71875 7.3125,14.8515625 7.3125,15 C7.3125,16.21875 6.5390625,17.1875 4.28125,17.1875 Z" id="google+"></path>
                </g>
            </g>
        </g>
    </g>
</svg>