<?xml version="1.0" encoding="UTF-8" standalone="no"?>
<svg width="16px" height="16px" viewBox="0 0 16 16" version="1.1" xmlns="http://www.w3.org/2000/svg" xmlns:xlink="http://www.w3.org/1999/xlink">
    <!-- Generator: Sketch 41 (35326) - http://www.bohemiancoding.com/sketch -->
    <title>linkedin</title>
    <desc>Created with Sketch.</desc>
    <defs></defs>
    <g id="Symbols" stroke="none" stroke-width="1" fill="none" fill-rule="evenodd" fill-opacity="0.54">
        <g id="Card-/-Event-(Regular)" transform="translate(-161.000000, -301.000000)" fill="#000000">
            <g id="Menu" transform="translate(-1.000000, 279.000000)">
                <g id="Shares" transform="translate(162.000000, 19.000000)">
                    <path d="M4,5.1640625 C3.984375,4.1328125 3.21875,3.3359375 2.015625,3.3359375 C0.796875,3.3359375 0,4.1328125 0,5.1640625 C0,6.1875 0.78125,7 1.9609375,7 L1.984375,7 C3.21875,7 4,6.1875 4,5.1640625 Z M0.3359375,8.6640625 L0.3359375,19 L3.6640625,19 L3.6640625,8.6640625 L0.3359375,8.6640625 Z M9,13 C9,11.6640625 9.8515625,11 10.8515625,11 C11.8515625,11 12.6640625,11.6640625 12.6640625,13.3359375 L12.6640625,19 L16,19 L16,13 C16,10 14.3359375,8.3359375 12,8.3359375 C10.6640625,8.3359375 9.6640625,9.09375 9,10.09375 L8.890625,8.6640625 L5.609375,8.6640625 C5.609375,9.015625 5.6640625,11 5.6640625,11 L5.6640625,19 L9,19 L9,13 Z" id="linkedin"></path>
                </g>
            </g>
        </g>
    </g>
</svg>