<svg class="navbar-brand-logo" xmlns="http://www.w3.org/2000/svg" width="534px" height="99px" viewBox="0 0 534 99" version="1.1">
  <title>Picatic</title>
  <desc>Picatic</desc>
  <path class="picatic-logotype-svg" transform="translate(170.000000, 0.000000)" fill="#000000" d="M363.435 55.657C360.211 53.27 356.391 51.359 352.211 51.359 343.854 51.359 337.286 57.807 337.286 66.284 337.286 75.119 343.614 81.328 352.569 81.328 356.391 81.328 360.569 79.776 363.435 77.149L363.435 95.537C358.659 97.925 353.405 99 348.151 99 330.003 99 314.839 85.507 314.839 67 314.839 47.3 329.884 33.688 349.106 33.688 354.122 33.688 359.137 34.882 363.435 37.27L363.435 55.657M285.588 35.718L307.318 35.718 307.318 96.97 285.588 96.97 285.588 35.718ZM308.632 12.195C308.632 18.882 303.14 24.374 296.453 24.374 289.767 24.374 284.274 18.882 284.274 12.195 284.274 5.51 289.767 0.017 296.453 0.017 303.14 0.017 308.632 5.51 308.632 12.195L308.632 12.195ZM268.754 96.97L247.022 96.97 247.022 53.628 239.979 53.628 239.979 35.718 247.022 35.718 247.022 17.33 268.754 17.33 268.754 35.718 281.052 35.718 281.052 53.628 268.754 53.628 268.754 96.97M183.98 66.403C183.98 74.164 189.114 80.135 197.95 80.135 206.786 80.135 211.92 74.164 211.92 66.403 211.92 58.881 206.786 52.553 197.95 52.553 189.114 52.553 183.98 58.881 183.98 66.403L183.98 66.403ZM232.935 96.97L211.204 96.97 211.204 90.164 210.965 90.164C207.145 96.253 199.622 99 192.458 99 174.31 99 161.533 83.836 161.533 66.284 161.533 48.732 174.07 33.688 192.219 33.688 199.264 33.688 206.667 36.314 211.204 41.687L211.204 35.718 232.935 35.718 232.935 96.97 232.935 96.97ZM154.849 55.657C151.625 53.27 147.805 51.359 143.625 51.359 135.268 51.359 128.7 57.807 128.7 66.284 128.7 75.119 135.028 81.328 143.983 81.328 147.805 81.328 151.983 79.776 154.849 77.149L154.849 95.537C150.073 97.925 144.819 99 139.565 99 121.417 99 106.253 85.507 106.253 67 106.253 47.3 121.298 33.688 140.521 33.688 145.536 33.688 150.551 34.882 154.849 37.27L154.849 55.657M77.002 35.718L98.732 35.718 98.732 96.97 77.002 96.97 77.002 35.718ZM100.046 12.195C100.046 18.882 94.554 24.374 87.867 24.374 81.181 24.374 75.688 18.882 75.688 12.195 75.688 5.51 81.181 0.017 87.867 0.017 94.554 0.017 100.046 5.51 100.046 12.195L100.046 12.195ZM24.347 48.255L28.287 48.255C36.765 48.255 45.122 48.255 45.122 37.27 45.122 25.927 37.361 25.808 28.287 25.808L24.347 25.808 24.347 48.255 24.347 48.255ZM0.944 6.942L36.765 6.942C56.107 6.942 69.479 15.897 69.479 36.554 69.479 57.807 58.018 67.12 37.601 67.12L24.347 67.12 24.347 96.97 0.944 96.97 0.944 6.942 0.944 6.942Z" id="c"/>
  <path class="picatic-logo-svg" transform="translate(0.000000, 6.000000)" fill="#000000" d="M76.5 0.97L108.06 0.97 84.075 61.032 52.515 61.032 76.5 0.97M36 0.97L67.56 0.97 31.56 90.97 0 90.97 36 0.97" id="Right-Bar"/>
</svg>
