<?xml version="1.0" encoding="UTF-8" standalone="no"?>
<svg width="14px" height="14px" viewBox="0 0 14 14" version="1.1" xmlns="http://www.w3.org/2000/svg" xmlns:xlink="http://www.w3.org/1999/xlink">
    <!-- Generator: Sketch 41 (35326) - http://www.bohemiancoding.com/sketch -->
    <title>share</title>
    <desc>Created with Sketch.</desc>
    <defs></defs>
    <g id="Symbols" stroke="none" stroke-width="1" fill="none" fill-rule="evenodd" fill-opacity="0.54">
        <g id="Card-/-Event-(Regular)" transform="translate(-161.000000, -303.000000)" fill="#000000">
            <g id="Menu" transform="translate(-1.000000, 279.000000)">
                <g id="Shares" transform="translate(162.000000, 18.000000)">
                    <path d="M11.375,14.75 C10.7802734,14.75 10.2333984,14.9482422 9.79589844,15.2763672 L5.23632812,13 L9.79589844,10.7236328 C10.2333984,11.0517578 10.7802734,11.25 11.375,11.25 C12.8242188,11.25 14,10.0742188 14,8.625 C14,7.17578125 12.8242188,6 11.375,6 C9.92578125,6 8.75,7.17578125 8.75,8.625 L8.75,8.63183594 L4.20410156,10.9013672 C3.76660156,10.5732422 3.21972656,10.375 2.625,10.375 C1.17578125,10.375 0,11.5507813 0,13 C0,14.4492188 1.17578125,15.625 2.625,15.625 C3.21972656,15.625 3.76660156,15.4267578 4.20410156,15.0986328 L8.75,17.3681641 L8.75,17.375 C8.75,18.8242188 9.92578125,20 11.375,20 C12.8242188,20 14,18.8242188 14,17.375 C14,15.9257813 12.8242188,14.75 11.375,14.75 Z" id="share"></path>
                </g>
            </g>
        </g>
    </g>
</svg>