<?xml version="1.0" encoding="UTF-8" standalone="no"?>
<svg width="16px" height="14px" viewBox="0 0 16 14" version="1.1" xmlns="http://www.w3.org/2000/svg" xmlns:xlink="http://www.w3.org/1999/xlink">
    <!-- Generator: Sketch 41 (35326) - http://www.bohemiancoding.com/sketch -->
    <title>twitter</title>
    <desc>Created with Sketch.</desc>
    <defs></defs>
    <g id="Symbols" stroke="none" stroke-width="1" fill="none" fill-rule="evenodd" fill-opacity="0.54">
        <g id="Card-/-Event-(Regular)" transform="translate(-161.000000, -302.000000)" fill="#000000">
            <g id="Menu" transform="translate(-1.000000, 279.000000)">
                <g id="Shares" transform="translate(162.000000, 19.000000)">
                    <path d="M16,5.8671875 C15.40625,6.1328125 14.78125,6.3125 14.109375,6.390625 C14.796875,5.984375 15.3125,5.3359375 15.5546875,4.5703125 C14.9296875,4.9453125 14.21875,5.21875 13.484375,5.3671875 C12.8671875,4.7421875 12.015625,4.3359375 11.0703125,4.3359375 C9.2578125,4.3359375 7.796875,5.796875 7.796875,7.609375 C7.796875,7.8671875 7.8125,8.1328125 7.8671875,8.3671875 C5.1484375,8.21875 2.7421875,6.984375 1.109375,5 C0.8359375,5.484375 0.6640625,5.984375 0.6640625,6.59375 C0.6640625,7.71875 1.2421875,8.71875 2.1328125,9.3125 C1.59375,9.296875 1.09375,9.1484375 0.6484375,8.90625 L0.6484375,8.9453125 C0.6484375,10.5390625 1.78125,11.8671875 3.28125,12.1640625 C3,12.2421875 2.703125,12.28125 2.40625,12.28125 C2.203125,12.28125 2,12.2578125 1.796875,12.21875 C2.203125,13.515625 3.4296875,14.484375 4.8515625,14.5 C3.7421875,15.390625 2.3125,16.0546875 0.78125,16.0546875 C0.515625,16.0546875 0.2578125,16.0390625 0,16 C1.4453125,16.9296875 3.1875,17.3359375 5.0390625,17.3359375 C11.0703125,17.3359375 14.3671875,12.3359375 14.3671875,8 L14.3671875,7.5703125 C15,7.109375 15.5546875,6.5390625 16,5.8671875 Z" id="twitter"></path>
                </g>
            </g>
        </g>
    </g>
</svg>