<?xml version="1.0" encoding="UTF-8" standalone="no"?>
<svg width="16px" height="16px" viewBox="0 0 16 16" version="1.1" xmlns="http://www.w3.org/2000/svg" xmlns:xlink="http://www.w3.org/1999/xlink">
    <!-- Generator: Sketch 41 (35326) - http://www.bohemiancoding.com/sketch -->
    <title>calendar</title>
    <desc>Created with Sketch.</desc>
    <defs></defs>
    <g id="Symbols" stroke="none" stroke-width="1" fill="none" fill-rule="evenodd" fill-opacity="0.54">
        <g id="Card-/-Event-(Regular)" transform="translate(-32.000000, -195.000000)" fill="#000000">
            <g id="Date" transform="translate(32.000000, 194.000000)">
                <path d="M2.5,8.5 L2.5,9.5 L3.5,9.5 L3.5,8.5 L2.5,8.5 Z M2.5,11 L2.5,12 L3.5,12 L3.5,11 L2.5,11 Z M2.5,13.5 L2.5,14.5 L3.5,14.5 L3.5,13.5 L2.5,13.5 Z M5,8.5 L5,9.5 L6,9.5 L6,8.5 L5,8.5 Z M5,11 L5,12 L6,12 L6,11 L5,11 Z M5,13.5 L5,14.5 L6,14.5 L6,13.5 L5,13.5 Z M7.5,8.5 L7.5,9.5 L8.5,9.5 L8.5,8.5 L7.5,8.5 Z M7.5,11 L7.5,12 L8.5,12 L8.5,11 L7.5,11 Z M7.5,13.5 L7.5,14.5 L8.5,14.5 L8.5,13.5 L7.5,13.5 Z M10,8.5 L10,9.5 L11,9.5 L11,8.5 L10,8.5 Z M9.5,10.5 L9.5,12.5 L11.5,12.5 L11.5,10.5 L9.5,10.5 Z M11,12 L10,12 L10,11 L11,11 L11,12 Z M12.5,8.5 L12.5,9.5 L13.5,9.5 L13.5,8.5 L12.5,8.5 Z M12.5,11 L12.5,12 L13.5,12 L13.5,11 L12.5,11 Z M8,2.734375 L6.390625,4.5 L9.5859375,4.5 L8,2.734375 Z M15,3.5 L10.765625,3.5 L8.734375,1.3203125 C8.5390625,1.109375 8.265625,1 8,1 C7.7109375,1 7.4453125,1.125 7.265625,1.3203125 L5.234375,3.5 L1,3.5 C0.4453125,3.5 0,3.9453125 0,4.5 L0,16 C0,16.5546875 0.4453125,17 1,17 L15,17 C15.5546875,17 16,16.5546875 16,16 L16,4.5 C16,3.9453125 15.5546875,3.5 15,3.5 Z M15,16 L1,16 L1,7 L15,7 L15,16 Z M15,6.5 L1,6.5 L1,4.5 L5.6640625,4.5 L8,2 L10.3359375,4.5 L15,4.5 L15,6.5 Z" id="calendar"></path>
            </g>
        </g>
    </g>
</svg>